<mxfile host="Electron" agent="Mozilla/5.0 (Windows NT 10.0; Win64; x64) AppleWebKit/537.36 (KHTML, like Gecko) draw.io/24.7.17 Chrome/128.0.6613.36 Electron/32.0.1 Safari/537.36" version="24.7.17">
  <diagram name="Page-1" id="4L7OGwmU9i-uAHLFuxh6">
    <mxGraphModel dx="1036" dy="1706" grid="1" gridSize="10" guides="1" tooltips="1" connect="1" arrows="1" fold="1" page="1" pageScale="1" pageWidth="850" pageHeight="1100" math="0" shadow="0">
      <root>
        <mxCell id="0" />
        <mxCell id="1" parent="0" />
        <mxCell id="NsDjb4ZyJTCru9kANxc--3" style="edgeStyle=orthogonalEdgeStyle;rounded=0;orthogonalLoop=1;jettySize=auto;html=1;exitX=0.5;exitY=1;exitDx=0;exitDy=0;exitPerimeter=0;entryX=0.5;entryY=0;entryDx=0;entryDy=0;" parent="1" source="NsDjb4ZyJTCru9kANxc--1" target="NsDjb4ZyJTCru9kANxc--2" edge="1">
          <mxGeometry relative="1" as="geometry" />
        </mxCell>
        <mxCell id="NsDjb4ZyJTCru9kANxc--1" value="Begin Here" style="strokeWidth=2;html=1;shape=mxgraph.flowchart.start_1;whiteSpace=wrap;" parent="1" vertex="1">
          <mxGeometry x="375" y="-1080" width="100" height="60" as="geometry" />
        </mxCell>
        <mxCell id="NsDjb4ZyJTCru9kANxc--2" value="Input total Purchasing" style="shape=parallelogram;html=1;strokeWidth=2;perimeter=parallelogramPerimeter;whiteSpace=wrap;rounded=1;arcSize=12;size=0.23;" parent="1" vertex="1">
          <mxGeometry x="375" y="-940" width="100" height="60" as="geometry" />
        </mxCell>
        <mxCell id="NsDjb4ZyJTCru9kANxc--8" value="Ya" style="edgeStyle=orthogonalEdgeStyle;rounded=0;orthogonalLoop=1;jettySize=auto;html=1;exitX=0.5;exitY=1;exitDx=0;exitDy=0;exitPerimeter=0;entryX=0.5;entryY=0;entryDx=0;entryDy=0;" parent="1" source="NsDjb4ZyJTCru9kANxc--4" target="NsDjb4ZyJTCru9kANxc--6" edge="1">
          <mxGeometry relative="1" as="geometry" />
        </mxCell>
        <mxCell id="NsDjb4ZyJTCru9kANxc--9" value="Tidak" style="edgeStyle=orthogonalEdgeStyle;rounded=0;orthogonalLoop=1;jettySize=auto;html=1;exitX=1;exitY=0.5;exitDx=0;exitDy=0;exitPerimeter=0;entryX=0.5;entryY=0;entryDx=0;entryDy=0;" parent="1" source="NsDjb4ZyJTCru9kANxc--4" target="NsDjb4ZyJTCru9kANxc--7" edge="1">
          <mxGeometry relative="1" as="geometry" />
        </mxCell>
        <mxCell id="NsDjb4ZyJTCru9kANxc--4" value="total &amp;gt; 1000" style="strokeWidth=2;html=1;shape=mxgraph.flowchart.decision;whiteSpace=wrap;" parent="1" vertex="1">
          <mxGeometry x="190" y="-850" width="100" height="100" as="geometry" />
        </mxCell>
        <mxCell id="NsDjb4ZyJTCru9kANxc--5" style="edgeStyle=orthogonalEdgeStyle;rounded=0;orthogonalLoop=1;jettySize=auto;html=1;exitX=0;exitY=0.5;exitDx=0;exitDy=0;entryX=0.5;entryY=0;entryDx=0;entryDy=0;entryPerimeter=0;" parent="1" source="NsDjb4ZyJTCru9kANxc--2" target="NsDjb4ZyJTCru9kANxc--4" edge="1">
          <mxGeometry relative="1" as="geometry" />
        </mxCell>
        <mxCell id="NsDjb4ZyJTCru9kANxc--6" value="Index = Bonus" style="rounded=1;whiteSpace=wrap;html=1;absoluteArcSize=1;arcSize=14;strokeWidth=2;" parent="1" vertex="1">
          <mxGeometry x="125" y="-660" width="230" height="60" as="geometry" />
        </mxCell>
        <mxCell id="NsDjb4ZyJTCru9kANxc--17" style="edgeStyle=orthogonalEdgeStyle;rounded=0;orthogonalLoop=1;jettySize=auto;html=1;exitX=0.5;exitY=1;exitDx=0;exitDy=0;entryX=0.5;entryY=0;entryDx=0;entryDy=0;" parent="1" source="NsDjb4ZyJTCru9kANxc--7" target="NsDjb4ZyJTCru9kANxc--16" edge="1">
          <mxGeometry relative="1" as="geometry" />
        </mxCell>
        <mxCell id="NsDjb4ZyJTCru9kANxc--7" value="Index = Tidak ada Bonus&lt;div&gt;Status = Tidak ada Diskon&lt;/div&gt;" style="rounded=1;whiteSpace=wrap;html=1;absoluteArcSize=1;arcSize=14;strokeWidth=2;" parent="1" vertex="1">
          <mxGeometry x="590" y="-660" width="230" height="60" as="geometry" />
        </mxCell>
        <mxCell id="NsDjb4ZyJTCru9kANxc--14" value="Tidak" style="edgeStyle=orthogonalEdgeStyle;rounded=0;orthogonalLoop=1;jettySize=auto;html=1;exitX=1;exitY=0.5;exitDx=0;exitDy=0;exitPerimeter=0;" parent="1" source="NsDjb4ZyJTCru9kANxc--10" target="NsDjb4ZyJTCru9kANxc--13" edge="1">
          <mxGeometry relative="1" as="geometry" />
        </mxCell>
        <mxCell id="NsDjb4ZyJTCru9kANxc--15" value="Ya" style="edgeStyle=orthogonalEdgeStyle;rounded=0;orthogonalLoop=1;jettySize=auto;html=1;exitX=0.5;exitY=1;exitDx=0;exitDy=0;exitPerimeter=0;entryX=0.5;entryY=0;entryDx=0;entryDy=0;" parent="1" source="NsDjb4ZyJTCru9kANxc--10" target="NsDjb4ZyJTCru9kANxc--12" edge="1">
          <mxGeometry relative="1" as="geometry" />
        </mxCell>
        <mxCell id="NsDjb4ZyJTCru9kANxc--10" value="Kartu Kredit" style="strokeWidth=2;html=1;shape=mxgraph.flowchart.decision;whiteSpace=wrap;" parent="1" vertex="1">
          <mxGeometry x="190" y="-510" width="100" height="100" as="geometry" />
        </mxCell>
        <mxCell id="NsDjb4ZyJTCru9kANxc--11" style="edgeStyle=orthogonalEdgeStyle;rounded=0;orthogonalLoop=1;jettySize=auto;html=1;exitX=0.5;exitY=1;exitDx=0;exitDy=0;entryX=0.5;entryY=0;entryDx=0;entryDy=0;entryPerimeter=0;" parent="1" source="NsDjb4ZyJTCru9kANxc--6" target="NsDjb4ZyJTCru9kANxc--10" edge="1">
          <mxGeometry relative="1" as="geometry" />
        </mxCell>
        <mxCell id="NsDjb4ZyJTCru9kANxc--26" style="edgeStyle=orthogonalEdgeStyle;rounded=0;orthogonalLoop=1;jettySize=auto;html=1;exitX=0.5;exitY=1;exitDx=0;exitDy=0;entryX=0;entryY=0.5;entryDx=0;entryDy=0;" parent="1" source="NsDjb4ZyJTCru9kANxc--12" target="NsDjb4ZyJTCru9kANxc--16" edge="1">
          <mxGeometry relative="1" as="geometry">
            <Array as="points">
              <mxPoint x="240" y="-195" />
            </Array>
          </mxGeometry>
        </mxCell>
        <mxCell id="NsDjb4ZyJTCru9kANxc--12" value="Status = Bonus Payung" style="rounded=1;whiteSpace=wrap;html=1;absoluteArcSize=1;arcSize=14;strokeWidth=2;" parent="1" vertex="1">
          <mxGeometry x="125" y="-340" width="230" height="60" as="geometry" />
        </mxCell>
        <mxCell id="NsDjb4ZyJTCru9kANxc--25" style="edgeStyle=orthogonalEdgeStyle;rounded=0;orthogonalLoop=1;jettySize=auto;html=1;exitX=0.5;exitY=1;exitDx=0;exitDy=0;entryX=0;entryY=0.5;entryDx=0;entryDy=0;" parent="1" source="NsDjb4ZyJTCru9kANxc--13" target="NsDjb4ZyJTCru9kANxc--16" edge="1">
          <mxGeometry relative="1" as="geometry">
            <Array as="points">
              <mxPoint x="535" y="-195" />
            </Array>
          </mxGeometry>
        </mxCell>
        <mxCell id="NsDjb4ZyJTCru9kANxc--13" value="Status = Bonus Gelas" style="rounded=1;whiteSpace=wrap;html=1;absoluteArcSize=1;arcSize=14;strokeWidth=2;" parent="1" vertex="1">
          <mxGeometry x="420" y="-340" width="230" height="60" as="geometry" />
        </mxCell>
        <mxCell id="NsDjb4ZyJTCru9kANxc--16" value="&lt;font style=&quot;font-size: 8px;&quot;&gt;Tampilkan Indeks dan Status&lt;/font&gt;" style="shape=parallelogram;html=1;strokeWidth=2;perimeter=parallelogramPerimeter;whiteSpace=wrap;rounded=1;arcSize=12;size=0.23;" parent="1" vertex="1">
          <mxGeometry x="630" y="-230" width="150" height="70" as="geometry" />
        </mxCell>
        <mxCell id="NsDjb4ZyJTCru9kANxc--27" value="End Here" style="strokeWidth=2;html=1;shape=mxgraph.flowchart.terminator;whiteSpace=wrap;" parent="1" vertex="1">
          <mxGeometry x="655" y="-100" width="100" height="60" as="geometry" />
        </mxCell>
        <mxCell id="NsDjb4ZyJTCru9kANxc--28" style="edgeStyle=orthogonalEdgeStyle;rounded=0;orthogonalLoop=1;jettySize=auto;html=1;exitX=0.5;exitY=1;exitDx=0;exitDy=0;entryX=0.5;entryY=0;entryDx=0;entryDy=0;entryPerimeter=0;" parent="1" source="NsDjb4ZyJTCru9kANxc--16" target="NsDjb4ZyJTCru9kANxc--27" edge="1">
          <mxGeometry relative="1" as="geometry" />
        </mxCell>
      </root>
    </mxGraphModel>
  </diagram>
</mxfile>
